<?xml version="1.0" encoding="UTF-8" standalone="no"?>
<svg xmlns="http://www.w3.org/2000/svg" id="svg4" version="1.1" height="32" width="130" viewBox="0 0 130 32">
    <!--<rect y="0" x="0" height="32" width="130" id="rect12" style="fill:#2c3c4f;fill-opacity:1;stroke:none;stroke-width:0.8448478"/>-->
    <path style="fill:#000000;stroke-width:1.07815742" id="path2" d="m 123.76012,22.89222 c 0,0 0,-7.67648 0,-7.67648 0,-1.401605 -0.34501,-2.490544 -1.01347,-3.256036 -0.67924,-0.776273 -1.61723,-1.153628 -2.81399,-1.153628 -0.53908,0 -1.0566,0.09703 -1.56333,0.301884 -0.49595,0.20485 -0.92721,0.495952 -1.30457,0.884089 -0.36657,0.388137 -0.66845,0.862526 -0.88409,1.433949 -0.21563,0.560642 -0.32345,1.207537 -0.32345,1.940684 0,0 0,7.525538 0,7.525538 0,0 -1.25066,0 -1.25066,0 0,0 0,-7.751951 0,-7.751951 0,-1.358479 -0.33422,-2.415073 -1.01347,-3.180565 -0.66845,-0.776273 -1.59567,-1.153628 -2.76008,-1.153628 -0.57142,0 -1.1105,0.118597 -1.61723,0.355792 -0.50674,0.226413 -0.94878,0.560641 -1.31535,0.981123 -0.37736,0.420481 -0.66846,0.916434 -0.88409,1.477076 -0.20485,0.54986 -0.31267,1.16441 -0.31267,1.822085 0,0 0,7.450068 0,7.450068 0,0 -1.23988,0 -1.23988,0 0,0 0,-12.927107 0,-12.927107 0,0 1.23988,0 1.23988,0 0,0 0,2.307257 0,2.307257 0.20485,-0.334229 0.43126,-0.657676 0.7008,-0.970342 0.25876,-0.323447 0.56064,-0.592987 0.89487,-0.840963 0.33423,-0.247976 0.73315,-0.442044 1.17519,-0.582205 0.45283,-0.14016 0.95956,-0.215631 1.54177,-0.215631 0.54986,0 1.06737,0.07547 1.53098,0.226413 0.46361,0.150942 0.87331,0.355792 1.2291,0.603768 0.3558,0.258758 0.65768,0.54986 0.92722,0.894871 0.25875,0.334228 0.48517,0.69002 0.66845,1.056594 0.20485,-0.34501 0.44205,-0.700802 0.73315,-1.035031 0.29111,-0.334229 0.62533,-0.636113 1.00269,-0.894871 0.37736,-0.269539 0.80862,-0.474389 1.29378,-0.625331 0.47439,-0.150942 1.02426,-0.226413 1.62803,-0.226413 0.76549,0 1.45551,0.129379 2.07006,0.388136 0.61455,0.26954 1.14285,0.625332 1.57411,1.08894 0.43126,0.474389 0.75471,1.035031 0.98112,1.703488 0.22641,0.668458 0.34501,1.401605 0.34501,2.210223 0,0 0,7.838204 0,7.838204 0,0 -1.23988,0 -1.23988,0 M 99.7819,20.735905 c -0.21563,0.301884 -0.48518,0.603768 -0.797837,0.894871 -0.312668,0.301884 -0.668456,0.560642 -1.067378,0.787055 -0.409698,0.226413 -0.873306,0.420481 -1.390818,0.560642 -0.506736,0.14016 -1.067376,0.215631 -1.681926,0.215631 -0.603768,0 -1.207536,-0.08625 -1.800522,-0.258758 -0.592992,-0.161723 -1.121286,-0.420481 -1.595677,-0.75471 -0.47439,-0.334229 -0.851742,-0.75471 -1.153626,-1.272225 -0.291102,-0.506734 -0.442044,-1.08894 -0.442044,-1.768179 0,0 0,-0.05391 0,-0.05391 0,-0.668458 0.14016,-1.272226 0.42048,-1.800523 0.28032,-0.517515 0.657672,-0.95956 1.153626,-1.315352 0.485173,-0.355792 1.078159,-0.625331 1.768183,-0.808618 0.7008,-0.183286 1.466292,-0.280321 2.307252,-0.280321 0.916434,0 1.70349,0.05391 2.361168,0.150943 0.657672,0.107815 1.293779,0.237194 1.919119,0.409699 0,0 0,-0.560642 0,-0.560642 0,-1.30457 -0.36657,-2.285693 -1.121281,-2.943369 -0.75471,-0.657676 -1.800528,-0.981124 -3.12666,-0.981124 -0.797838,0 -1.520202,0.09703 -2.188656,0.291103 -0.657678,0.194068 -1.28301,0.442044 -1.865215,0.743929 0,0 -0.463608,-1.088939 -0.463608,-1.088939 0.711583,-0.345011 1.433947,-0.625332 2.156317,-0.830182 0.722364,-0.20485 1.541766,-0.312665 2.436636,-0.312665 1.671144,0 2.986494,0.420481 3.946057,1.272225 0.97033,0.840963 1.44472,2.113189 1.44472,3.795115 0,0 0,8.064616 0,8.064616 0,0 -1.21831,0 -1.21831,0 0,0 0,-2.156314 0,-2.156314 m 0.0323,-4.161688 C 99.27512,16.444836 98.639009,16.315457 97.916639,16.186078 97.183493,16.0567 96.353315,15.99201 95.426099,15.99201 c -1.36926,0 -2.415072,0.280321 -3.148218,0.830181 -0.743935,0.539079 -1.110505,1.272226 -1.110505,2.177879 0,0 0,0.05391 0,0.05391 0,0.463608 0.107814,0.884089 0.312666,1.250663 0.194071,0.355792 0.474391,0.657676 0.819397,0.916433 0.345012,0.247977 0.743934,0.442045 1.207536,0.582206 0.452826,0.129378 0.927216,0.204849 1.412388,0.204849 0.657678,0 1.28301,-0.107815 1.875996,-0.291102 0.592986,-0.194069 1.110504,-0.463608 1.56333,-0.808618 0.442044,-0.34501 0.797831,-0.765492 1.056591,-1.250663 0.26954,-0.485171 0.39892,-1.024249 0.39892,-1.617236 0,0 0,-1.466294 0,-1.466294 m -22.51193,2.037717 c 0.269538,0.679239 0.657678,1.272225 1.132068,1.778959 0.485166,0.506735 1.045812,0.894871 1.692708,1.185974 0.636108,0.28032 1.326132,0.431262 2.07006,0.431262 0.916434,0 1.73583,-0.215631 2.447418,-0.625331 0.722364,-0.420481 1.347696,-0.927215 1.886772,-1.530983 0,0 0.86253,0.75471 0.86253,0.75471 -0.657678,0.743929 -1.401606,1.358478 -2.242572,1.854431 -0.830178,0.485171 -1.843644,0.733146 -3.029622,0.733146 -0.927216,0 -1.78974,-0.183286 -2.59836,-0.549859 -0.797832,-0.355793 -1.498638,-0.840963 -2.080842,-1.455513 -0.592986,-0.603768 -1.056594,-1.315352 -1.380042,-2.12397 -0.33423,-0.808618 -0.495948,-1.671144 -0.495948,-2.587578 0,0 0,-0.05391 0,-0.05391 0,-0.905653 0.161718,-1.768178 0.495948,-2.576796 0.323448,-0.808618 0.787056,-1.530984 1.380042,-2.156315 0.582204,-0.625331 1.28301,-1.121284 2.080842,-1.487857 0.80862,-0.355792 1.671144,-0.539079 2.59836,-0.539079 0.61455,0 1.164414,0.06469 1.660362,0.194068 0.495954,0.129379 0.959562,0.301884 1.380042,0.528297 0.420486,0.226413 0.80862,0.485171 1.153632,0.765492 0.345012,0.291103 0.679236,0.592987 0.98112,0.916434 0,0 -0.89487,0.916434 -0.89487,0.916434 -0.549858,-0.571422 -1.164408,-1.078156 -1.84365,-1.498637 -0.679236,-0.420481 -1.498638,-0.636113 -2.458194,-0.636113 -0.743934,0 -1.433952,0.150942 -2.070066,0.431263 -0.625332,0.291103 -1.17519,0.679239 -1.638798,1.175192 -0.47439,0.495952 -0.840966,1.078157 -1.110504,1.757396 -0.269538,0.668458 -0.398916,1.390823 -0.398916,2.167096 0,0 0,0.04313 0,0.04313 0,0.776273 0.14016,1.50942 0.42048,2.188659 M 68.94655,4.391038 c 0,0 3.094314,0 3.094314,0 0,0 0,18.501181 0,18.501181 0,0 -3.094314,0 -3.094314,0 0,0 0,-18.501181 0,-18.501181 m -3.320724,12.894763 c 0,0 -9.832796,0 -9.832796,0 0.194068,1.09972 0.625331,1.940683 1.326134,2.522888 0.690021,0.582205 1.530983,0.873307 2.53367,0.873307 0.75471,0 1.412386,-0.129378 1.973028,-0.398918 0.560641,-0.269539 1.09972,-0.668457 1.649581,-1.196755 0,0 1.800525,1.595673 1.800525,1.595673 -0.646896,0.765492 -1.412389,1.36926 -2.296478,1.832868 -0.884089,0.452826 -1.951465,0.679239 -3.180564,0.679239 -0.95956,0 -1.865213,-0.172505 -2.695394,-0.506734 -0.840963,-0.334229 -1.563328,-0.808618 -2.188659,-1.423168 -0.61455,-0.603768 -1.099721,-1.336915 -1.455513,-2.188659 -0.355792,-0.851744 -0.528297,-1.800523 -0.528297,-2.846336 0,-0.970341 0.161724,-1.875993 0.485171,-2.716956 0.312665,-0.840963 0.765491,-1.584891 1.347697,-2.210223 0.582205,-0.636113 1.272225,-1.142847 2.070062,-1.50942 0.797836,-0.377355 1.671144,-0.560642 2.630704,-0.560642 1.067376,0 2.005373,0.194068 2.803209,0.582205 0.797837,0.388137 1.466295,0.916434 2.005372,1.57411 0.5283,0.657676 0.927216,1.423168 1.196754,2.307257 0.269538,0.873307 0.409704,1.789741 0.409704,2.760082 0,0.129379 0,0.26954 -0.0012,0.398919 -0.0012,0.14016 -0.02154,0.280321 -0.04314,0.431263 m -3.320684,-3.406978 c -0.161723,-0.431263 -0.388136,-0.797836 -0.679239,-1.110502 -0.291102,-0.312665 -0.625331,-0.560642 -1.024249,-0.75471 -0.398919,-0.183287 -0.851745,-0.269539 -1.358478,-0.269539 -0.948779,0 -1.725053,0.323447 -2.339603,0.970341 -0.62533,0.646895 -1.002686,1.498639 -1.132065,2.544452 0,0 6.867863,0 6.867863,0 -0.05391,-0.485171 -0.161723,-0.948779 -0.334229,-1.380042 M 42.455191,27 c -2.231786,0 -4.226378,-0.539079 -5.983774,-1.606454 0,0 1.142846,-2.307257 1.142846,-2.307257 0.711584,0.442044 1.455513,0.787055 2.231786,1.045812 0.776274,0.247976 1.617237,0.377355 2.533671,0.377355 1.36926,0 2.415072,-0.34501 3.137437,-1.045812 0.722366,-0.690021 1.08894,-1.714271 1.08894,-3.072749 0,0 0,-1.045813 0,-1.045813 -0.560642,0.733147 -1.207537,1.326134 -1.951465,1.789742 -0.743929,0.463607 -1.660363,0.690021 -2.760083,0.690021 -0.797837,0 -1.552547,-0.140161 -2.285694,-0.420482 -0.722365,-0.280321 -1.36926,-0.690021 -1.929902,-1.2291 -0.571423,-0.539078 -1.02425,-1.196754 -1.358479,-1.973028 -0.334228,-0.776273 -0.506733,-1.660362 -0.506733,-2.663049 0,-0.991904 0.172505,-1.886775 0.506733,-2.663048 0.334229,-0.776273 0.787056,-1.433949 1.358479,-1.973028 0.560642,-0.539079 1.207537,-0.948779 1.951465,-1.239881 0.733147,-0.291103 1.487857,-0.431263 2.264131,-0.431263 1.132065,0 2.070062,0.226413 2.803209,0.679239 0.733147,0.452826 1.358478,0.991905 1.886775,1.617236 0,0 0,-2.016154 0,-2.016154 0,0 3.061968,0 3.061968,0 0,0 0,10.641413 0,10.641413 0,2.361165 -0.625332,4.096999 -1.875994,5.196719 C 46.519844,26.45014 44.751666,27 42.455191,27 m 3.859803,-12.981015 c -0.20485,-0.463608 -0.495953,-0.851745 -0.851744,-1.175192 -0.355792,-0.312665 -0.765492,-0.560642 -1.250663,-0.733147 -0.485171,-0.183287 -0.981123,-0.269539 -1.509421,-0.269539 -0.539078,0 -1.03503,0.08625 -1.487857,0.269539 -0.463607,0.172505 -0.862526,0.420482 -1.207536,0.733147 -0.34501,0.323447 -0.61455,0.711584 -0.808618,1.16441 -0.194068,0.452826 -0.291103,0.95956 -0.291103,1.50942 0,0.54986 0.09704,1.056595 0.301884,1.509421 0.204851,0.452826 0.47439,0.840963 0.808619,1.16441 0.334228,0.334229 0.743928,0.582205 1.207536,0.75471 0.463608,0.183287 0.95956,0.269539 1.477075,0.269539 0.528298,0 1.02425,-0.08625 1.509421,-0.269539 0.485171,-0.172505 0.894871,-0.420481 1.250663,-0.75471 0.355791,-0.323447 0.646894,-0.711584 0.851744,-1.153629 0.215632,-0.442044 0.323448,-0.937997 0.323448,-1.498639 0,-0.549859 -0.107816,-1.056593 -0.323448,-1.520201 m -16.614406,1.283007 c 0,-1.045813 -0.237194,-1.843649 -0.733147,-2.415072 -0.495952,-0.560642 -1.196755,-0.840963 -2.102407,-0.840963 -0.884089,0 -1.606455,0.291102 -2.156315,0.873307 -0.54986,0.582205 -0.830181,1.390823 -0.830181,2.436636 0,0 0,7.53632 0,7.53632 0,0 -3.094312,0 -3.094312,0 0,0 0,-13.379933 0,-13.379933 0,0 3.094312,0 3.094312,0 0,0 0,2.102407 0,2.102407 0.215631,-0.334229 0.452826,-0.636113 0.722365,-0.916434 0.258758,-0.280321 0.560642,-0.528297 0.905653,-0.75471 0.34501,-0.215632 0.722365,-0.388137 1.142847,-0.517516 0.409699,-0.129379 0.873307,-0.194068 1.401604,-0.194068 1.50942,0 2.684612,0.463607 3.504012,1.390823 0.830181,0.927215 1.239881,2.177878 1.239881,3.751988 0,0 0,8.517443 0,8.517443 0,0 -3.094312,0 -3.094312,0 0,0 0,-7.590228 0,-7.590228 M 14.09965,21.242639 c -0.463609,0.539079 -1.045814,0.991905 -1.746616,1.36926 -0.711584,0.366574 -1.57411,0.560642 -2.587578,0.560642 -0.646894,0 -1.2506628,-0.09703 -1.8220862,-0.269539 C 7.3611648,22.719715 6.8652124,22.460957 6.4339494,22.115947 6.0026864,21.770936 5.657676,21.339673 5.3881367,20.822158 5.1293789,20.304642 5,19.711656 5,19.032417 c 0,0 0,-0.04313 0,-0.04313 C 5,18.25614 5.1293789,17.630809 5.4096998,17.09173 5.6792392,16.541873 6.0458127,16.099828 6.5309836,15.744036 7.0161544,15.388244 7.5875778,15.118705 8.2560355,14.9462 8.9244928,14.762913 9.646859,14.676661 10.423132,14.676661 c 0.808618,0 1.498639,0.05391 2.059281,0.150942 0.571423,0.107816 1.110502,0.237195 1.6388,0.4097 0,0 0,-0.334229 0,-0.334229 0,-0.927215 -0.280321,-1.638799 -0.851746,-2.12397 -0.560641,-0.485171 -1.380041,-0.733147 -2.436635,-0.733147 -0.765492,0 -1.444731,0.07547 -2.0377182,0.226413 -0.5822046,0.150942 -1.1859728,0.355792 -1.789741,0.603768 0,0 -0.8409628,-2.458199 -0.8409628,-2.458199 C 6.9083386,10.08371 7.6738305,9.814171 8.4501038,9.609321 9.226377,9.404471 10.164374,9.307437 11.253313,9.307437 c 1.994592,0 3.471668,0.495952 4.44201,1.487857 0.95956,0.981123 1.444731,2.371946 1.444731,4.161688 0,0 0,7.935238 0,7.935238 0,0 -3.040404,0 -3.040404,0 0,0 0,-1.649581 0,-1.649581 m 0.07547,-4.032309 c -0.388138,-0.150942 -0.851745,-0.28032 -1.380042,-0.377355 -0.539079,-0.09703 -1.099721,-0.150942 -1.692708,-0.150942 -0.95956,0 -1.71427,0.183287 -2.2533492,0.560642 -0.5390785,0.366574 -0.8086179,0.894871 -0.8086179,1.595673 0,0 0,0.04313 0,0.04313 0,0.646895 0.2479763,1.132066 0.7439289,1.477076 0.5067342,0.334229 1.1105022,0.506734 1.8436492,0.506734 0.506734,0 0.970341,-0.06469 1.401605,-0.20485 0.431263,-0.14016 0.808618,-0.323447 1.132065,-0.571423 0.323447,-0.247976 0.571424,-0.539079 0.743929,-0.884089 0.183287,-0.345011 0.26954,-0.733147 0.26954,-1.153629 0,0 0,-0.840963 0,-0.840963" fillRule="evenodd"/>
</svg>
